<svg width="109" height="44" viewBox="0 0 109 44" fill="none" xmlns="http://www.w3.org/2000/svg">
<path d="M6.39643 0.135136C4.13963 0.594604 2.01798 2.1622 0.950391 4.16223C-1.45505 8.6623 0.896336 14.0678 5.85588 15.5138C6.32886 15.6489 7.62618 15.73 10.1262 15.7976L13.7209 15.8786L14.2749 16.257C14.5857 16.4597 14.9776 16.8787 15.1398 17.203L15.4506 17.7706L15.5182 27.8383L15.5858 37.906L15.9371 38.8114C16.4236 40.0682 17.0182 40.9331 18.0318 41.8926C20.4372 44.1359 23.8832 44.6359 26.8697 43.1629C28.2076 42.5007 29.7346 40.9872 30.3428 39.7304C31.2076 37.9331 31.1941 38.1493 31.1941 27.6761C31.1941 20.8382 31.2347 18.0138 31.3563 17.6895C31.586 16.9868 31.9644 16.5273 32.5996 16.1489L33.1806 15.8111L41.0321 15.8381L48.8836 15.8786L48.0728 18.2976C47.2349 20.7976 47.1674 21.2571 47.6809 21.4193C48.1809 21.5814 48.4241 21.3652 49.5052 19.8652L50.5593 18.3787H51.2891H52.0053V17.9057C52.0053 17.4868 51.9647 17.4327 51.6674 17.4327C51.4782 17.4327 51.3296 17.3922 51.3296 17.3516C51.3296 17.176 52.6945 15.4327 52.8972 15.3516C53.0188 15.3111 53.3026 15.2705 53.5594 15.2705C53.8026 15.2705 54.5323 15.1759 55.1945 15.0678C56.3702 14.8516 57.0054 14.5948 57.0054 14.311C57.0054 14.0002 55.6945 13.6759 53.4648 13.4462L52.6945 13.3651L51.9512 12.3651C51.5323 11.811 51.1945 11.3245 51.1945 11.284C51.1945 11.2434 51.3431 11.2164 51.5323 11.2164C51.8296 11.2164 51.8701 11.1623 51.8701 10.7434V10.2704H51.1404H50.3971L49.3701 8.86501C48.316 7.40553 48.0187 7.17579 47.5593 7.41904C47.1944 7.62175 47.0998 7.98661 47.289 8.45959C47.3701 8.67582 47.7349 9.70286 48.0998 10.7434C48.8296 12.8245 48.789 12.784 50.0188 12.8245C50.3296 12.838 50.5053 12.8921 50.4512 12.9732C50.3971 13.0678 46.9106 13.1083 40.4375 13.1083C29.6671 13.1083 30.1536 13.0813 29.3292 13.8381C28.5184 14.5678 28.559 13.9056 28.4914 26.2166L28.4238 37.5006L28.0454 38.2574C27.2616 39.852 25.9238 40.8926 24.2075 41.2169C22.0318 41.6493 19.6399 40.379 18.6534 38.2709L18.2885 37.5006L18.2209 26.2842C18.1804 20.1084 18.0993 14.9462 18.0318 14.7975C17.775 14.2164 17.2344 13.6354 16.7344 13.3786C16.2344 13.1218 15.9371 13.1083 12.0452 13.1083C9.76135 13.1083 7.51807 13.0543 7.08563 12.9732C5.39641 12.7029 3.97747 11.6218 3.18016 10.0137C2.78826 9.21637 2.74772 9.01366 2.74772 7.90553C2.74772 6.82444 2.80177 6.5947 3.16664 5.79739C3.76125 4.54062 4.40991 3.87844 5.62614 3.27032L6.65319 2.77031L22.8562 2.70275L39.0591 2.63518L39.3835 2.25679C39.8564 1.70273 39.8294 0.918934 39.3159 0.391899L38.924 0L22.9237 0.0135117C14.1263 0.0270271 6.69373 0.0810814 6.39643 0.135136Z" fill="white"/>
<path d="M53.9734 38V25.184H56.8294V28.712L56.4934 27.68C56.8774 26.816 57.4774 26.16 58.2934 25.712C59.1254 25.264 60.1574 25.04 61.3894 25.04V27.896C61.2614 27.864 61.1414 27.848 61.0294 27.848C60.9174 27.832 60.8054 27.824 60.6934 27.824C59.5574 27.824 58.6534 28.16 57.9814 28.832C57.3094 29.488 56.9734 30.472 56.9734 31.784V38H53.9734ZM63.9343 38V25.184H66.9343V38H63.9343ZM65.4463 23.072C64.8863 23.072 64.4223 22.896 64.0543 22.544C63.7023 22.192 63.5263 21.768 63.5263 21.272C63.5263 20.76 63.7023 20.336 64.0543 20C64.4223 19.648 64.8863 19.472 65.4463 19.472C66.0063 19.472 66.4623 19.64 66.8143 19.976C67.1823 20.296 67.3663 20.704 67.3663 21.2C67.3663 21.728 67.1903 22.176 66.8383 22.544C66.4863 22.896 66.0223 23.072 65.4463 23.072ZM77.9758 38.168C76.9358 38.168 75.9838 37.928 75.1198 37.448C74.2718 36.968 73.5918 36.248 73.0798 35.288C72.5838 34.312 72.3358 33.08 72.3358 31.592C72.3358 30.088 72.5758 28.856 73.0558 27.896C73.5518 26.936 74.2238 26.224 75.0718 25.76C75.9198 25.28 76.8878 25.04 77.9758 25.04C79.2398 25.04 80.3518 25.312 81.3118 25.856C82.2878 26.4 83.0558 27.16 83.6158 28.136C84.1918 29.112 84.4798 30.264 84.4798 31.592C84.4798 32.92 84.1918 34.08 83.6158 35.072C83.0558 36.048 82.2878 36.808 81.3118 37.352C80.3518 37.896 79.2398 38.168 77.9758 38.168ZM70.8718 42.656V25.184H73.7278V28.208L73.6318 31.616L73.8718 35.024V42.656H70.8718ZM77.6398 35.6C78.3598 35.6 78.9998 35.44 79.5598 35.12C80.1358 34.8 80.5918 34.336 80.9278 33.728C81.2638 33.12 81.4318 32.408 81.4318 31.592C81.4318 30.76 81.2638 30.048 80.9278 29.456C80.5918 28.848 80.1358 28.384 79.5598 28.064C78.9998 27.744 78.3598 27.584 77.6398 27.584C76.9198 27.584 76.2718 27.744 75.6958 28.064C75.1198 28.384 74.6638 28.848 74.3278 29.456C73.9918 30.048 73.8238 30.76 73.8238 31.592C73.8238 32.408 73.9918 33.12 74.3278 33.728C74.6638 34.336 75.1198 34.8 75.6958 35.12C76.2718 35.44 76.9198 35.6 77.6398 35.6ZM87.7329 38V24.464C87.7329 23.12 88.1249 22.048 88.9089 21.248C89.7089 20.432 90.8449 20.024 92.3169 20.024C92.8449 20.024 93.3409 20.08 93.8049 20.192C94.2849 20.304 94.6849 20.48 95.0049 20.72L94.1889 22.976C93.9649 22.8 93.7089 22.672 93.4209 22.592C93.1329 22.496 92.8369 22.448 92.5329 22.448C91.9089 22.448 91.4369 22.624 91.1169 22.976C90.7969 23.312 90.6369 23.824 90.6369 24.512V25.952L90.7329 27.296V38H87.7329ZM85.6209 27.68V25.28H94.1649V27.68H85.6209ZM97.4747 42.824C96.8507 42.824 96.2267 42.72 95.6027 42.512C94.9787 42.304 94.4587 42.016 94.0427 41.648L95.2427 39.44C95.5467 39.712 95.8907 39.928 96.2747 40.088C96.6587 40.248 97.0507 40.328 97.4507 40.328C97.9947 40.328 98.4347 40.192 98.7707 39.92C99.1067 39.648 99.4187 39.192 99.7067 38.552L100.451 36.872L100.691 36.512L105.539 25.184H108.419L102.419 39.032C102.019 39.992 101.571 40.752 101.075 41.312C100.595 41.872 100.051 42.264 99.4427 42.488C98.8507 42.712 98.1947 42.824 97.4747 42.824ZM100.115 38.456L94.3307 25.184H97.4507L102.155 36.248L100.115 38.456Z" fill="white"/>
</svg>
